<mxfile host="app.diagrams.net" modified="2023-08-01T01:40:20.209Z" agent="Mozilla/5.0 (Windows NT 10.0; Win64; x64) AppleWebKit/537.36 (KHTML, like Gecko) Chrome/115.0.0.0 Safari/537.36" etag="UDnLf1I7g4ce0Pdonfqj" version="21.6.6" type="github">
  <diagram id="GNqFCcxSc9w9rzO7mvoY" name="第 1 页">
    <mxGraphModel dx="989" dy="523" grid="1" gridSize="10" guides="1" tooltips="1" connect="1" arrows="1" fold="1" page="1" pageScale="1" pageWidth="827" pageHeight="1169" math="0" shadow="0">
      <root>
        <mxCell id="0" />
        <mxCell id="1" parent="0" />
        <mxCell id="a7ZOLqP6ZekNGYwvmZNE-22" value="" style="ellipse;whiteSpace=wrap;html=1;dashed=1;fillColor=#ffe6cc;strokeColor=#d79b00;" vertex="1" parent="1">
          <mxGeometry x="610" y="260" width="120" height="152.5" as="geometry" />
        </mxCell>
        <mxCell id="a7ZOLqP6ZekNGYwvmZNE-21" value="" style="ellipse;whiteSpace=wrap;html=1;dashed=1;fillColor=#d5e8d4;strokeColor=#82b366;" vertex="1" parent="1">
          <mxGeometry x="630" y="110" width="170" height="140" as="geometry" />
        </mxCell>
        <mxCell id="a7ZOLqP6ZekNGYwvmZNE-1" value="" style="ellipse;whiteSpace=wrap;html=1;aspect=fixed;" vertex="1" parent="1">
          <mxGeometry x="320" y="350" width="20" height="20" as="geometry" />
        </mxCell>
        <mxCell id="a7ZOLqP6ZekNGYwvmZNE-2" value="" style="rounded=1;whiteSpace=wrap;html=1;arcSize=0;direction=west;" vertex="1" parent="1">
          <mxGeometry x="380" y="310" width="30" height="30" as="geometry" />
        </mxCell>
        <mxCell id="a7ZOLqP6ZekNGYwvmZNE-3" value="" style="endArrow=none;html=1;rounded=0;entryX=1;entryY=0.25;entryDx=0;entryDy=0;exitX=0.958;exitY=0.287;exitDx=0;exitDy=0;exitPerimeter=0;" edge="1" parent="1" source="a7ZOLqP6ZekNGYwvmZNE-1" target="a7ZOLqP6ZekNGYwvmZNE-2">
          <mxGeometry width="50" height="50" relative="1" as="geometry">
            <mxPoint x="290" y="400" as="sourcePoint" />
            <mxPoint x="410" y="390" as="targetPoint" />
          </mxGeometry>
        </mxCell>
        <mxCell id="a7ZOLqP6ZekNGYwvmZNE-4" value="" style="ellipse;whiteSpace=wrap;html=1;aspect=fixed;" vertex="1" parent="1">
          <mxGeometry x="500" y="250" width="20" height="20" as="geometry" />
        </mxCell>
        <mxCell id="a7ZOLqP6ZekNGYwvmZNE-5" value="" style="rounded=1;whiteSpace=wrap;html=1;arcSize=0;direction=west;" vertex="1" parent="1">
          <mxGeometry x="560" y="290" width="30" height="30" as="geometry" />
        </mxCell>
        <mxCell id="a7ZOLqP6ZekNGYwvmZNE-6" value="" style="endArrow=none;html=1;rounded=0;entryX=1;entryY=0.5;entryDx=0;entryDy=0;exitX=1;exitY=1;exitDx=0;exitDy=0;" edge="1" parent="1" source="a7ZOLqP6ZekNGYwvmZNE-4" target="a7ZOLqP6ZekNGYwvmZNE-5">
          <mxGeometry width="50" height="50" relative="1" as="geometry">
            <mxPoint x="460" y="390" as="sourcePoint" />
            <mxPoint x="580" y="380" as="targetPoint" />
          </mxGeometry>
        </mxCell>
        <mxCell id="a7ZOLqP6ZekNGYwvmZNE-7" value="" style="ellipse;whiteSpace=wrap;html=1;aspect=fixed;" vertex="1" parent="1">
          <mxGeometry x="360" y="260" width="20" height="20" as="geometry" />
        </mxCell>
        <mxCell id="a7ZOLqP6ZekNGYwvmZNE-8" value="" style="endArrow=none;html=1;rounded=0;entryX=0.75;entryY=1;entryDx=0;entryDy=0;exitX=0.702;exitY=0.958;exitDx=0;exitDy=0;exitPerimeter=0;" edge="1" parent="1" source="a7ZOLqP6ZekNGYwvmZNE-7" target="a7ZOLqP6ZekNGYwvmZNE-2">
          <mxGeometry width="50" height="50" relative="1" as="geometry">
            <mxPoint x="310" y="310" as="sourcePoint" />
            <mxPoint x="400" y="243" as="targetPoint" />
          </mxGeometry>
        </mxCell>
        <mxCell id="a7ZOLqP6ZekNGYwvmZNE-9" value="" style="ellipse;whiteSpace=wrap;html=1;aspect=fixed;" vertex="1" parent="1">
          <mxGeometry x="430" y="350" width="20" height="20" as="geometry" />
        </mxCell>
        <mxCell id="a7ZOLqP6ZekNGYwvmZNE-10" value="" style="endArrow=none;html=1;rounded=0;entryX=0.129;entryY=0;entryDx=0;entryDy=0;exitX=0.042;exitY=0.322;exitDx=0;exitDy=0;exitPerimeter=0;entryPerimeter=0;" edge="1" parent="1" source="a7ZOLqP6ZekNGYwvmZNE-9" target="a7ZOLqP6ZekNGYwvmZNE-2">
          <mxGeometry width="50" height="50" relative="1" as="geometry">
            <mxPoint x="310" y="420" as="sourcePoint" />
            <mxPoint x="400" y="353" as="targetPoint" />
          </mxGeometry>
        </mxCell>
        <mxCell id="a7ZOLqP6ZekNGYwvmZNE-11" value="" style="ellipse;whiteSpace=wrap;html=1;aspect=fixed;" vertex="1" parent="1">
          <mxGeometry x="510" y="350" width="20" height="20" as="geometry" />
        </mxCell>
        <mxCell id="a7ZOLqP6ZekNGYwvmZNE-12" value="" style="endArrow=none;html=1;rounded=0;entryX=0.868;entryY=-0.003;entryDx=0;entryDy=0;exitX=1;exitY=0;exitDx=0;exitDy=0;entryPerimeter=0;" edge="1" parent="1" source="a7ZOLqP6ZekNGYwvmZNE-11" target="a7ZOLqP6ZekNGYwvmZNE-5">
          <mxGeometry width="50" height="50" relative="1" as="geometry">
            <mxPoint x="510" y="310" as="sourcePoint" />
            <mxPoint x="553" y="348" as="targetPoint" />
          </mxGeometry>
        </mxCell>
        <mxCell id="a7ZOLqP6ZekNGYwvmZNE-13" value="" style="triangle;whiteSpace=wrap;html=1;rotation=-90;" vertex="1" parent="1">
          <mxGeometry x="460" y="410" width="20" height="30" as="geometry" />
        </mxCell>
        <mxCell id="a7ZOLqP6ZekNGYwvmZNE-14" value="" style="triangle;whiteSpace=wrap;html=1;rotation=-90;" vertex="1" parent="1">
          <mxGeometry x="540" y="450" width="20" height="30" as="geometry" />
        </mxCell>
        <mxCell id="a7ZOLqP6ZekNGYwvmZNE-15" value="" style="triangle;whiteSpace=wrap;html=1;rotation=-90;" vertex="1" parent="1">
          <mxGeometry x="380" y="460" width="20" height="30" as="geometry" />
        </mxCell>
        <mxCell id="a7ZOLqP6ZekNGYwvmZNE-16" value="" style="endArrow=none;dashed=1;html=1;strokeWidth=2;rounded=0;exitX=1;exitY=0.5;exitDx=0;exitDy=0;entryX=0.75;entryY=0;entryDx=0;entryDy=0;" edge="1" parent="1" source="a7ZOLqP6ZekNGYwvmZNE-15" target="a7ZOLqP6ZekNGYwvmZNE-2">
          <mxGeometry width="50" height="50" relative="1" as="geometry">
            <mxPoint x="210" y="450" as="sourcePoint" />
            <mxPoint x="260" y="400" as="targetPoint" />
          </mxGeometry>
        </mxCell>
        <mxCell id="a7ZOLqP6ZekNGYwvmZNE-17" value="" style="endArrow=none;html=1;strokeWidth=2;rounded=0;exitX=0.5;exitY=0;exitDx=0;exitDy=0;entryX=0.591;entryY=-0.022;entryDx=0;entryDy=0;dashed=1;entryPerimeter=0;" edge="1" parent="1" source="a7ZOLqP6ZekNGYwvmZNE-13" target="a7ZOLqP6ZekNGYwvmZNE-2">
          <mxGeometry width="50" height="50" relative="1" as="geometry">
            <mxPoint x="400" y="475" as="sourcePoint" />
            <mxPoint x="398" y="350" as="targetPoint" />
          </mxGeometry>
        </mxCell>
        <mxCell id="a7ZOLqP6ZekNGYwvmZNE-19" value="" style="endArrow=none;dashed=1;html=1;strokeWidth=2;rounded=0;entryX=0.5;entryY=0;entryDx=0;entryDy=0;exitX=1;exitY=0.5;exitDx=0;exitDy=0;" edge="1" parent="1" source="a7ZOLqP6ZekNGYwvmZNE-14">
          <mxGeometry width="50" height="50" relative="1" as="geometry">
            <mxPoint x="530" y="450" as="sourcePoint" />
            <mxPoint x="580" y="320" as="targetPoint" />
          </mxGeometry>
        </mxCell>
        <mxCell id="a7ZOLqP6ZekNGYwvmZNE-23" value="" style="endArrow=classic;html=1;rounded=0;exitX=0;exitY=0.25;exitDx=0;exitDy=0;entryX=0.5;entryY=1;entryDx=0;entryDy=0;" edge="1" parent="1" source="a7ZOLqP6ZekNGYwvmZNE-13" target="a7ZOLqP6ZekNGYwvmZNE-15">
          <mxGeometry width="50" height="50" relative="1" as="geometry">
            <mxPoint x="420" y="540" as="sourcePoint" />
            <mxPoint x="470" y="490" as="targetPoint" />
          </mxGeometry>
        </mxCell>
        <mxCell id="a7ZOLqP6ZekNGYwvmZNE-24" value="" style="endArrow=classic;html=1;rounded=0;exitX=0;exitY=0.75;exitDx=0;exitDy=0;entryX=0.5;entryY=0;entryDx=0;entryDy=0;" edge="1" parent="1" source="a7ZOLqP6ZekNGYwvmZNE-13" target="a7ZOLqP6ZekNGYwvmZNE-14">
          <mxGeometry width="50" height="50" relative="1" as="geometry">
            <mxPoint x="473" y="445" as="sourcePoint" />
            <mxPoint x="408" y="485" as="targetPoint" />
          </mxGeometry>
        </mxCell>
        <mxCell id="a7ZOLqP6ZekNGYwvmZNE-25" value="" style="endArrow=classic;startArrow=classic;html=1;rounded=0;dashed=1;entryX=0.32;entryY=0.97;entryDx=0;entryDy=0;entryPerimeter=0;exitX=0.68;exitY=0.07;exitDx=0;exitDy=0;exitPerimeter=0;" edge="1" parent="1" source="a7ZOLqP6ZekNGYwvmZNE-1" target="a7ZOLqP6ZekNGYwvmZNE-7">
          <mxGeometry width="50" height="50" relative="1" as="geometry">
            <mxPoint x="310" y="330" as="sourcePoint" />
            <mxPoint x="360" y="280" as="targetPoint" />
          </mxGeometry>
        </mxCell>
        <mxCell id="a7ZOLqP6ZekNGYwvmZNE-26" value="" style="endArrow=classic;startArrow=classic;html=1;rounded=0;dashed=1;entryX=0.937;entryY=0.737;entryDx=0;entryDy=0;entryPerimeter=0;" edge="1" parent="1" source="a7ZOLqP6ZekNGYwvmZNE-11" target="a7ZOLqP6ZekNGYwvmZNE-7">
          <mxGeometry width="50" height="50" relative="1" as="geometry">
            <mxPoint x="462.1192899329263" y="331.5121794239129" as="sourcePoint" />
            <mxPoint x="417.8871863128324" y="320.0000112662899" as="targetPoint" />
          </mxGeometry>
        </mxCell>
        <mxCell id="a7ZOLqP6ZekNGYwvmZNE-27" value="" style="endArrow=classic;startArrow=classic;html=1;rounded=0;dashed=1;exitX=1;exitY=0.5;exitDx=0;exitDy=0;" edge="1" parent="1" source="a7ZOLqP6ZekNGYwvmZNE-9">
          <mxGeometry width="50" height="50" relative="1" as="geometry">
            <mxPoint x="480" y="432" as="sourcePoint" />
            <mxPoint x="510" y="360" as="targetPoint" />
          </mxGeometry>
        </mxCell>
      </root>
    </mxGraphModel>
  </diagram>
</mxfile>
